<svg width="792" height="200" viewBox="0 0 792 200" fill="none" xmlns="http://www.w3.org/2000/svg">
<path d="M303.943 108.392C303.943 111.628 303.319 114.896 302.07 118.196C300.853 121.464 298.98 124.475 296.451 127.231C293.954 129.986 290.768 132.212 286.894 133.911C283.052 135.576 278.49 136.409 273.208 136.409C266.26 136.409 260.305 134.856 255.343 131.748C250.412 128.608 246.634 124.283 244.009 118.773C241.416 113.262 240.119 106.903 240.119 99.694C240.119 92.4855 241.416 86.142 244.009 80.6635C246.634 75.1529 250.412 70.8438 255.343 67.7362C260.305 64.6285 266.26 63.0746 273.208 63.0746C278.97 63.0746 283.885 64.0518 287.951 66.0061C292.049 67.9604 295.331 70.5235 297.796 73.6952C300.293 76.867 302.022 80.263 302.982 83.8833C303.623 86.3502 303.943 88.737 303.943 91.0438H284.493C284.493 90.0185 284.429 89.1215 284.301 88.3526C284.013 86.2701 283.389 84.46 282.428 82.9221C281.468 81.3843 280.203 80.1989 278.634 79.3659C277.098 78.5009 275.289 78.0684 273.208 78.0684C270.71 78.0684 268.453 78.8053 266.436 80.279C264.419 81.7528 262.802 84.0755 261.586 87.2473C260.401 90.419 259.809 94.5679 259.809 99.694C259.809 104.788 260.401 108.937 261.586 112.141C262.802 115.345 264.419 117.699 266.436 119.205C268.453 120.711 270.71 121.464 273.208 121.464C275 121.464 276.585 121.143 277.962 120.503C279.371 119.83 280.555 118.901 281.516 117.715C282.476 116.53 283.213 115.152 283.725 113.582C284.237 111.981 284.493 110.25 284.493 108.392H303.943Z" fill="white"/>
<path d="M315.911 135.16L332.383 64.2761H363.166L379.542 135.16H359.708L347.75 75.8578H347.846L335.744 135.16H315.911ZM330.318 120.262V105.701H365.279V120.262H330.318Z" fill="white"/>
<path d="M439.231 78.6931H413.875L422.615 69.9468V135.16H403.261V69.9468L412.002 78.6931H386.693V64.2761H439.231V78.6931Z" fill="white"/>
<path d="M446.457 135.16L462.929 64.2761H493.712L510.088 135.16H490.254L478.296 75.8578H478.392L466.29 135.16H446.457ZM460.864 120.262V105.701H495.825V120.262H460.864Z" fill="white"/>
<path d="M577.912 64.2761H610.52V135.16H592.127V74.6083L592.463 74.8005L581.466 135.16H556.782L545.448 74.6564L545.784 74.4641V135.16H527.343V64.2761H559.951L569.844 127.759H567.875L577.912 64.2761Z" fill="white"/>
<path d="M630.962 135.16V64.2761H650.075V135.16H630.962Z" fill="white"/>
<path d="M695.67 136.409C690.42 136.409 685.713 135.576 681.551 133.911C677.389 132.212 674.092 129.698 671.658 126.366C669.257 123.034 668.057 118.901 668.057 113.967C668.057 113.55 668.057 113.134 668.057 112.717C668.057 112.301 668.057 111.884 668.057 111.468H687.41C687.41 111.82 687.41 112.173 687.41 112.525C687.41 112.878 687.41 113.23 687.41 113.582C687.41 115.825 688.098 117.699 689.475 119.205C690.884 120.711 693.013 121.464 695.862 121.464C698.616 121.464 700.777 121.063 702.346 120.262C703.946 119.429 704.747 118.084 704.747 116.226C704.747 114.848 703.994 113.566 702.49 112.381C701.017 111.196 699.016 110.074 696.487 109.017C693.989 107.96 691.204 106.951 688.13 105.989C684.801 104.932 681.631 103.507 678.622 101.712C675.644 99.9183 673.211 97.5955 671.322 94.7441C669.433 91.8607 668.489 88.2885 668.489 84.0275C668.489 79.6383 669.705 75.8898 672.139 72.7821C674.572 69.6424 677.837 67.2396 681.935 65.5736C686.065 63.9076 690.644 63.0746 695.67 63.0746C700.889 63.0746 705.547 63.8916 709.645 65.5255C713.775 67.1595 717.041 69.5623 719.442 72.7341C721.843 75.9058 723.044 79.8305 723.044 84.508C723.044 84.9245 723.044 85.325 723.044 85.7094C723.044 86.0939 723.044 86.4944 723.044 86.9109H703.69C703.69 86.7507 703.69 86.5104 703.69 86.19C703.69 85.8376 703.69 85.5813 703.69 85.4211C703.69 83.3386 703.098 81.5766 701.913 80.1348C700.761 78.6931 698.76 77.9723 695.91 77.9723C693.093 77.9723 690.916 78.4849 689.379 79.5101C687.874 80.5353 687.122 82.0251 687.122 83.9794C687.122 85.357 687.762 86.5745 689.043 87.6317C690.324 88.6569 692.084 89.6181 694.326 90.5151C696.599 91.4122 699.16 92.3733 702.009 93.3985C706.3 94.9043 710.061 96.5703 713.295 98.3965C716.529 100.191 719.042 102.449 720.835 105.172C722.66 107.896 723.572 111.388 723.572 115.649C723.572 120.102 722.371 123.883 719.97 126.99C717.569 130.066 714.255 132.405 710.029 134.007C705.835 135.609 701.049 136.409 695.67 136.409Z" fill="white"/>
<path d="M792 78.6931H766.643L775.384 69.9468V135.16H756.03V69.9468L764.771 78.6931H739.462V64.2761H792V78.6931Z" fill="white"/>
<path fill-rule="evenodd" clip-rule="evenodd" d="M107.634 199.954C159.347 196.075 200.099 152.859 200.099 100.119C200.099 44.8246 155.306 0 100.05 0C44.7938 0 0 44.8246 0 100.119C0 153.078 41.0919 196.434 93.1108 200V146.141H42.2791C39.5056 146.141 36.9744 144.56 35.7558 142.067C34.5373 139.574 34.8443 136.604 36.5471 134.413L61.3194 102.541H51.9613C49.1948 102.541 46.6687 100.968 45.4466 98.4841C44.2245 96.0005 44.5188 93.0378 46.2056 90.8435L94.6167 27.8657C95.9913 26.0775 98.1179 25.0296 100.372 25.0296C102.627 25.0296 104.754 26.0775 106.128 27.8657L154.539 90.8435C156.226 93.0378 156.52 96.0005 155.298 98.4841C154.076 100.968 151.55 102.541 148.784 102.541H139.425L164.198 134.413C165.901 136.604 166.208 139.574 164.989 142.067C163.771 144.56 161.239 146.141 158.466 146.141H107.634V199.954ZM118.846 99.7354L143.618 131.607H57.1266L81.8989 99.7354C83.6016 97.5446 83.9087 94.5746 82.6901 92.0815C81.4716 89.5883 78.9404 88.0074 76.1669 88.0074H66.7088L100.372 44.2145L134.036 88.0074H124.578C121.805 88.0074 119.273 89.5883 118.055 92.0815C116.836 94.5746 117.143 97.5446 118.846 99.7354Z" fill="white"/>
</svg>
